<?xml version="1.0" encoding="utf-8"?>
<!-- Generator: Adobe Illustrator 26.0.2, SVG Export Plug-In . SVG Version: 6.00 Build 0)  -->
<svg version="1.1" id="Layer_1" xmlns="http://www.w3.org/2000/svg" xmlns:xlink="http://www.w3.org/1999/xlink" x="0px" y="0px"
	 viewBox="0 0 114.4 39.5" style="enable-background:new 0 0 114.4 39.5;" xml:space="preserve">
<style type="text/css">
	.st0{fill:#FFFFFF;}
	.st1{enable-background:new    ;}
</style>
<g id="logo" transform="translate(-18 -19)">
	<g id="g827">
		<g id="g833" transform="translate(101.9402,643.0292)">
			<path id="path835" class="st0" d="M-49.2-610.3c-3.2,0-5.1-1.9-5.1-5.2c0-3,2-4.9,5-4.9c2.4,0,4.1,1.4,4.5,3.6
				c0.1,0.7,0.1,1.4,0.1,2.1h-7v0.1c0,1.6,0.9,2.6,2.5,2.6c1.1,0,1.7-0.5,2-1.4h2.4C-45.2-611.4-46.8-610.3-49.2-610.3 M-49.4-618.7
				c-1.4,0-2.2,0.9-2.2,2.4v0.1h4.5v-0.1C-47.1-617.8-47.9-618.7-49.4-618.7 M-67.5-610.3c-1.5,0-3.3-0.8-3.3-3
				c0-3.2,3.3-3.2,5.5-3.2h1.1v-0.8c0-1-0.7-1.6-1.9-1.6c-1.2,0-1.8,0.5-1.9,1.6h-2.4c0.2-2.7,2.6-3,4.6-3c2.9,0,4,1.1,4,4.1v4h0.9
				v1.7h-3.2v-1.4l0,0l0,0C-65-610.7-66-610.3-67.5-610.3 M-65.7-615c-1.3,0-2.8,0.2-2.8,1.6c0,0.9,0.6,1.4,1.6,1.4
				c0.8,0,1.4-0.2,1.9-0.7s0.8-1.3,0.8-2.2v-0.1H-65.7z M-60.4-610.6v-1.7h1.3v-10.1h-1.3v-1.7h3.9v11.8h1.3v1.7H-60.4z
				 M-77.2-623.9v1.8H-79l3,4.5l3-4.5h-1.8v-1.8h6.4v1.8h-1.8l-4.6,6.7v3h2v1.8h-6.5v-1.8h2v-3l-4.6-6.7H-84v-1.8H-77.2z"/>
		</g>
		<g id="g837" transform="translate(103.3427,618.4094)">
			<path id="path839" class="st0" d="M-49.8-571.2c-1.4,0-2.8-0.3-3.5-1.4v1.1h-2v-4.1h2.1c0,1.7,0.8,2.8,2.8,2.8
				c1,0,2.2-0.7,2.2-1.7c0-1.8-1.6-2.2-3.2-2.6c-1.9-0.4-3.8-0.9-3.8-3.6c0-2.2,1.5-3.6,4-3.6c1.1,0,2.4,0.3,3.2,1.3l0,0v-1.1h2v3.7
				h-2.1c0-1.5-0.9-2.5-2.6-2.5c-1.3,0-2.1,0.6-2.1,1.7c0,1.3,1.4,1.7,2.9,2c2,0.5,4.3,1,4.3,3.9C-45.7-572.8-47.4-571.2-49.8-571.2
				 M-62.5-571.2c-5.2,0-5.6-3.5-5.6-4.5v-6.5h-1.3v-1.7h5.7v1.7h-1.8v5.7c0,0.7,0,2.1,0.9,2.9c0.5,0.5,1.2,0.7,2.1,0.7
				c0.8,0,1.4-0.2,1.9-0.6c0.8-0.8,0.8-2.1,0.8-2.9c0-0.1,0-0.2,0-0.3v-5.6h-1.8v-1.7h5.6v1.7h-1.4v6.5
				C-57.5-573.1-59.6-571.2-62.5-571.2 M-74.7-571.5l-4.8-9.9v8.3h1.6v1.7h-5.5v-1.7h1.6v-9.1h-1.6v-1.7h5l4.9,9.9v-8.3h-1.6v-1.7
				h5.1v1.7h-1.3v10.7L-74.7-571.5L-74.7-571.5z"/>
		</g>
		<g id="g841" transform="translate(109.6901,606.8076)">
			<path id="path843" class="st0" d="M-52.4-552.8c0-0.4,0-0.8-0.1-1.2c-0.2-1.3-1.2-2-2.5-2c-1.6,0-2.7,1-2.7,2.7s1,2.8,2.8,2.8
				c1.2,0,2.2-0.5,2.4-1.8h-1.4c-0.1,0.6-0.5,0.8-1,0.8c-0.8,0-1.3-0.5-1.3-1.3H-52.4z M-56.1-553.8c0-0.7,0.4-1.2,1.1-1.2
				c0.8,0,1.1,0.5,1.1,1.2H-56.1z M-62.6-553.3c0-0.8,0.3-1.6,1.3-1.6c0.9,0,1.2,0.8,1.2,1.6s-0.4,1.6-1.3,1.6
				C-62.1-551.8-62.6-552.5-62.6-553.3 M-58-555.8h-2v0.8l0,0c-0.4-0.5-0.9-0.9-1.7-0.9c-1.7,0-2.4,1.2-2.4,2.7
				c0,1.3,0.8,2.5,2.2,2.5c0.9,0,1.2-0.2,1.7-0.7v0.6c0,0.6-0.5,1.3-1.1,1.3c-0.5,0-0.9-0.1-1-0.7h-1.6c0.1,1.2,0.9,1.7,2.4,1.7
				c2.1,0,2.7-1.2,2.7-2.5v-3.7h0.7L-58-555.8L-58-555.8z M-64.8-552.8c0-0.4,0-0.8-0.1-1.2c-0.2-1.3-1.2-2-2.5-2
				c-1.6,0-2.7,1-2.7,2.7s1,2.8,2.8,2.8c1.2,0,2.2-0.5,2.4-1.8h-1.4c-0.1,0.6-0.5,0.8-1,0.8c-0.8,0-1.3-0.5-1.3-1.3H-64.8z
				 M-68.6-553.8c0-0.7,0.4-1.2,1.1-1.2c0.8,0,1.1,0.5,1.1,1.2H-68.6z M-73.2-550.7h2.9v-1H-71v-6.6h-2.2v1h0.7v5.6h-0.7V-550.7z
				 M-76.5-550.7h2.9v-1h-0.7v-6.6h-2.2v1h0.7v5.6h-0.7C-76.5-551.7-76.5-550.7-76.5-550.7z M-79.5-556c-1.6,0-2.8,1-2.8,2.7
				s1.1,2.7,2.8,2.7c1.6,0,2.8-1,2.8-2.7C-76.8-555-77.9-556-79.5-556 M-80.8-553.3c0-0.8,0.3-1.7,1.2-1.7s1.2,0.9,1.2,1.7
				s-0.3,1.7-1.2,1.7S-80.8-552.4-80.8-553.3 M-83-557.9h-1.4v0.8l0,0c-0.5-0.7-1.2-1-2.1-1c-2.3,0-3.4,1.6-3.4,3.8
				c0,2.1,1.2,3.7,3.8,3.7c1.4,0,3.1-0.6,3.2-2.6h-1.5c0,0.9-0.8,1.6-1.6,1.6c-1.5,0-2.2-1.1-2.2-2.5s0.5-2.9,2.1-2.9
				c1.1,0,1.8,0.7,1.8,1.8h1.4v-2.7L-83-557.9L-83-557.9z"/>
		</g>
	</g>
	<rect id="Rectangle_24" x="68.5" y="19.1" class="st0" width="1" height="39.4"/>
	<g class="st1">
		<path class="st0" d="M77.3,44.1c0.3-0.7,0.8-1.4,1.3-2.3c0.5-0.9,0.9-1.7,1.4-2.8s0.9-2,1.4-3.1s0.9-2.2,1.3-3.3s0.8-2.3,1.1-3.4
			s0.7-2.4,1-3.6c0.2,0.2,0.5,0.5,0.7,0.6s0.5,0.5,0.7,0.6s0.5,0.3,0.7,0.6c0.2,0.2,0.3,0.3,0.5,0.6c-0.2,0.8-0.6,1.6-0.9,2.5
			s-0.8,1.8-1.1,2.8c-0.3,0.9-0.8,1.8-1.3,2.8c-0.5,0.9-0.9,1.8-1.3,2.6c-0.3,0.8-0.8,1.6-1.1,2.3c-0.3,0.7-0.7,1.4-1,2
			c0.5,0,1,0,1.6,0s1.3,0,2,0s1.5,0,2.3,0s1.6,0,2.4,0c-0.1,0.1-0.2,0.3-0.5,0.6S88,43.7,87.8,44c-0.1,0.2-0.6,0.6-0.8,0.8
			c-0.2,0.2-0.3,0.3-0.6,0.6c-0.7,0-1.4-0.1-2-0.1s-1.3-0.1-1.8-0.2C82,45,81.5,45,80.9,44.9c-0.6-0.1-1.1-0.1-1.6-0.2
			c-0.1,0.1-0.1,0.2-0.2,0.3S79,45,79,45L77.3,44.1z"/>
		<path class="st0" d="M98,40.6c-0.7,0.7-1.4,1.3-2,1.7c-0.6,0.5-1.1,0.8-1.7,1.1s-1,0.5-1.6,0.6s-1,0.2-1.5,0.2
			c-0.2,0-0.5-0.1-0.7-0.2s-0.5-0.3-0.7-0.6s-0.3-0.5-0.6-0.7S89,42.4,89,42.2c0-0.6,0.1-1.1,0.2-1.7c0.1-0.6,0.3-0.9,0.7-1.4
			s0.6-0.8,0.9-1s0.7-0.6,1.1-0.8c0.5-0.2,0.8-0.3,1.1-0.5s0.7-0.1,1-0.1c0.2,0,0.5,0.1,0.7,0.2c0.2,0.1,0.5,0.3,0.6,0.5
			s0.3,0.3,0.5,0.6s0.2,0.3,0.2,0.6c0,0.2-0.1,0.5-0.3,0.8c-0.2,0.3-0.5,0.6-0.9,0.8c-0.5,0.2-0.8,0.6-1.4,0.8s-1.1,0.6-1.8,0.9
			c0,0.2,0,0.3,0,0.6c0,0.2,0,0.3,0.1,0.5s0.3,0.1,0.6,0.1c0.5,0,0.9-0.1,1.4-0.2s0.8-0.3,1.3-0.7c0.5-0.3,0.8-0.6,1.1-0.9
			s0.7-0.7,1.1-1L98,40.6z M93.9,37.9c-0.1,0-0.3,0.1-0.5,0.2c-0.1,0.1-0.3,0.3-0.6,0.7s-0.3,0.6-0.5,0.9c-0.1,0.3-0.3,0.7-0.5,1
			c0.2-0.2,0.6-0.3,0.8-0.6s0.5-0.5,0.7-0.7s0.3-0.5,0.5-0.7S94,38.2,94,38C94.2,38,94.2,38,93.9,37.9C93.9,37.8,94,37.9,93.9,37.9z
			"/>
		<path class="st0" d="M106.7,40.6c-0.7,0.7-1.3,1.3-2,1.8c-0.7,0.6-1.3,1-2,1.5c-0.1,0.3-0.2,0.7-0.3,1c-0.1,0.3-0.2,0.7-0.5,1
			c-0.2,0.5-0.5,0.9-0.8,1.4s-0.6,0.9-0.9,1.3c-0.3,0.3-0.7,0.7-1,1s-0.7,0.6-0.9,0.8c-0.2,0.2-0.6,0.3-0.9,0.5
			c-0.3,0.1-0.5,0.2-0.7,0.2c-0.1,0-0.2,0-0.5-0.1s-0.3-0.2-0.5-0.5s-0.2-0.3-0.3-0.6c-0.1-0.2-0.1-0.3-0.1-0.6s0.1-0.8,0.3-1.1
			s0.6-0.8,1.1-1.1s1-0.8,1.6-1.3s1.3-0.9,2.1-1.4c0.1-0.5,0.3-0.9,0.6-1.5c0.2-0.6,0.5-1.3,0.7-2.2c-0.2,0.3-0.6,0.7-0.9,1.1
			c-0.3,0.5-0.7,0.7-1.1,0.9s-0.8,0.5-1.1,0.7c-0.3,0.2-0.7,0.2-1,0.2c-0.1,0-0.2,0-0.3-0.1s-0.2-0.2-0.3-0.3s-0.2-0.2-0.3-0.5
			s-0.1-0.3-0.1-0.6c0-0.2,0.1-0.6,0.2-0.9s0.3-0.7,0.6-1.1s0.5-0.8,0.8-1.1s0.7-0.8,1.1-1.1c0.5-0.3,0.8-0.7,1.4-0.9s1-0.5,1.5-0.7
			c0.1,0,0.2,0,0.3,0.1s0.3,0.1,0.5,0.2c0.1,0.1,0.2,0.1,0.3,0.2c0.1,0.1,0.1,0.1,0.1,0.1l0,0l0,0c-0.2,0.1-0.3,0.2-0.7,0.5
			s-0.6,0.3-0.8,0.7c-0.2,0.3-0.6,0.5-0.9,0.8s-0.6,0.6-0.8,0.8s-0.5,0.6-0.6,0.8s-0.2,0.5-0.2,0.7c0,0.1,0,0.1,0,0.2
			s0.1,0.1,0.1,0.1c0.2,0,0.3-0.1,0.7-0.2s0.5-0.3,0.7-0.5c0.2-0.1,0.5-0.5,0.7-0.7s0.5-0.5,0.7-0.8s0.5-0.5,0.6-0.7
			s0.3-0.3,0.5-0.6l0,0l0,0c0.1,0,0.1,0.1,0.2,0.2s0.2,0.3,0.3,0.5c0.1,0.1,0.2,0.3,0.2,0.6c0,0.2,0.1,0.3,0.1,0.3l0,0
			c0,0,0,0,0,0.1c-0.1,0.2-0.2,0.6-0.3,1.1c-0.1,0.6-0.2,1-0.5,1.6c0.5-0.3,0.9-0.8,1.5-1.1s0.9-0.9,1.5-1.4L106.7,40.6z M96.7,49.8
			c0.1,0,0.3-0.1,0.7-0.3s0.6-0.6,0.9-0.9s0.6-0.8,0.9-1.1s0.6-0.8,0.8-1.3c-0.5,0.3-0.9,0.7-1.4,1s-0.8,0.6-1,0.9
			c-0.2,0.3-0.5,0.6-0.7,0.8C96.7,49.1,96.6,49.5,96.7,49.8C96.6,49.7,96.6,49.8,96.7,49.8z"/>
		<path class="st0" d="M112.4,42.4C112.4,42.5,112.4,42.5,112.4,42.4c0.1,0.1,0.2,0,0.5-0.1s0.3-0.2,0.6-0.3s0.5-0.3,0.7-0.5
			s0.5-0.3,0.7-0.6c0.2-0.2,0.3-0.3,0.6-0.5s0.3-0.2,0.3-0.3c0.1,0.1,0.1,0.1,0.2,0.2s0.2,0.2,0.2,0.3c-0.2,0.1-0.3,0.3-0.7,0.6
			c-0.3,0.2-0.6,0.5-0.8,0.7s-0.6,0.5-0.9,0.8s-0.6,0.5-0.9,0.7s-0.6,0.3-0.8,0.5c-0.2,0.1-0.5,0.2-0.7,0.2c-0.1,0-0.2,0-0.5-0.1
			c-0.2-0.1-0.3-0.1-0.5-0.2c-0.1-0.1-0.2-0.2-0.3-0.3S110,43.3,110,43c0-0.1,0-0.1,0-0.2c0-0.1,0-0.2,0-0.3s0-0.3,0.1-0.5
			s0.1-0.5,0.2-0.7c-0.2,0.2-0.6,0.6-0.9,0.8s-0.7,0.6-1,0.8s-0.7,0.5-1.1,0.7s-0.7,0.3-1,0.5h-0.1c0,0,0,0-0.1,0s-0.2,0-0.3-0.1
			s-0.2-0.2-0.3-0.3s-0.2-0.2-0.3-0.5s-0.1-0.3-0.1-0.5c0,0,0-0.2,0.1-0.5s0.1-0.6,0.3-0.9c0.2-0.3,0.5-0.8,0.7-1.4
			c0.2-0.6,0.8-1,1.4-1.5c0.3-0.2,0.6-0.5,0.9-0.7c0.2-0.2,0.6-0.3,0.9-0.6c0.3-0.2,0.8-0.3,1.1-0.5l0,0l0,0c0.1,0,0.2,0.1,0.3,0.1
			s0.2,0.1,0.3,0.2c0.1,0.1,0.2,0.1,0.3,0.2c0.1,0.1,0.1,0.1,0.2,0.2l0,0l0,0c-0.3,0.2-0.7,0.3-0.9,0.6s-0.6,0.5-0.8,0.6
			c-0.2,0.2-0.6,0.5-0.8,0.7c-0.6,0.6-0.9,1-1.1,1.4s-0.3,0.7-0.3,0.8s0,0.2,0.1,0.2s0.2,0,0.3-0.1s0.3-0.2,0.6-0.3s0.5-0.3,0.7-0.5
			c0.2-0.1,0.5-0.5,0.8-0.6c0.2-0.2,0.5-0.3,0.7-0.6c0.2-0.2,0.3-0.3,0.6-0.6s0.3-0.5,0.5-0.7l0,0l0,0c0.1,0.1,0.2,0.1,0.2,0.3
			s0.2,0.3,0.3,0.5c0.1,0.1,0.1,0.3,0.2,0.5c0.1,0.1,0.1,0.2,0.1,0.3c-0.2,0.3-0.3,0.7-0.3,0.9s-0.1,0.6-0.2,0.8s-0.1,0.3-0.1,0.6
			C112.1,42.5,112.4,42.4,112.4,42.4z"/>
		<path class="st0" d="M116.6,44.2c-0.1,0-0.2,0-0.5-0.1s-0.3-0.2-0.6-0.3s-0.3-0.3-0.6-0.5s-0.3-0.5-0.5-0.6c0-0.1-0.1-0.2-0.1-0.2
			s0-0.2,0-0.5c0-0.5,0.1-0.8,0.2-1.3s0.3-0.8,0.6-1.3c0.2-0.5,0.5-0.8,0.8-1.1s0.7-0.7,1-0.9s0.8-0.5,1.3-0.6s0.9-0.2,1.4-0.2
			c0.1,0,0.1,0,0.2,0.1s0.2,0.1,0.3,0.2c0.1,0.1,0.2,0.2,0.5,0.5s0.2,0.3,0.3,0.5c0.1,0.1,0.2,0.3,0.2,0.5s0.1,0.2,0.1,0.3
			s-0.1,0.3-0.3,0.5c-0.2,0.1-0.5,0.3-0.7,0.5s-0.6,0.2-0.8,0.3s-0.6,0.1-0.8,0.1c-0.1,0-0.2,0-0.2-0.1s0-0.2,0.1-0.3
			s0.2-0.3,0.3-0.6c0.1-0.2,0.2-0.3,0.3-0.6c0.1-0.2,0.1-0.3,0.1-0.5c0-0.1,0-0.1,0-0.1l-0.1-0.1c-0.1,0-0.3,0.1-0.5,0.2
			s-0.3,0.3-0.6,0.6s-0.3,0.6-0.5,0.8s-0.3,0.7-0.5,1c-0.1,0.3-0.2,0.7-0.3,1c-0.1,0.3-0.1,0.7-0.1,0.9c0,0.1,0,0.2,0.1,0.3
			s0.2,0.1,0.5,0.1c0.5,0,1-0.1,1.5-0.2c0.5-0.1,0.9-0.3,1.4-0.7c0.5-0.3,0.8-0.6,1.3-0.9s0.8-0.7,1.1-1c0.1,0.1,0.2,0.2,0.3,0.2
			s0.2,0.2,0.2,0.2c-0.5,0.5-0.9,0.9-1.5,1.4s-1,0.8-1.6,1.1s-1.1,0.6-1.8,0.8S117.2,44.2,116.6,44.2z"/>
		<path class="st0" d="M132.4,40.6c-0.7,0.6-1.4,1.1-2.1,1.7c-0.7,0.6-1.4,1-2.2,1.6c-0.1,0.3-0.2,0.7-0.3,1
			c-0.1,0.3-0.3,0.8-0.5,1.1c-0.2,0.5-0.5,0.9-0.7,1.5s-0.6,0.9-0.9,1.4s-0.6,0.8-0.9,1.1s-0.7,0.7-0.9,0.9s-0.6,0.5-0.9,0.6
			s-0.6,0.2-0.8,0.2c-0.1,0-0.2,0-0.5-0.1s-0.3-0.2-0.5-0.3s-0.3-0.2-0.3-0.5s-0.1-0.3-0.1-0.5c0-0.5,0.1-0.9,0.3-1.4
			c0.2-0.5,0.6-0.9,1-1.4c0.5-0.5,0.9-0.9,1.6-1.4s1.3-0.9,2-1.5c0.2-0.6,0.5-1.1,0.7-1.8s0.5-1.3,0.6-1.8c-0.3,0.5-0.7,0.8-0.9,1
			c-0.2,0.2-0.6,0.6-0.8,0.8s-0.5,0.3-0.7,0.5c-0.2,0.1-0.3,0.2-0.5,0.3c-0.1,0-0.1,0.1-0.2,0.1s-0.1,0-0.2,0s-0.3,0-0.5-0.1
			s-0.3-0.2-0.5-0.3s-0.2-0.2-0.3-0.5s-0.1-0.3-0.1-0.5c0-0.1,0-0.5,0.1-0.8s0.2-0.8,0.5-1.3c0.2-0.5,0.3-1.1,0.7-1.7
			s0.5-1.4,0.8-2.1l0,0c0,0,0,0,0.1,0s0.3,0.1,0.6,0.2s0.5,0.2,0.7,0.3s0.5,0.2,0.6,0.3s0.2,0.1,0.2,0.2c0,0-0.1,0.2-0.2,0.3
			s-0.2,0.5-0.3,0.7c-0.1,0.2-0.2,0.6-0.3,0.9c-0.1,0.3-0.2,0.6-0.3,0.9c-0.1,0.3-0.2,0.6-0.2,0.8s-0.1,0.5-0.1,0.6l0,0
			c0,0,0.1-0.1,0.3-0.2s0.3-0.3,0.7-0.7s0.6-0.7,0.9-1.1c0.3-0.5,0.7-1,1-1.6c0.1-0.5,0.2-0.9,0.3-1.1s0.1-0.5,0.2-0.5
			c0,0,0.1,0,0.3,0.1s0.3,0.2,0.6,0.3s0.3,0.3,0.6,0.5s0.2,0.2,0.2,0.3v0.1v0.1c-0.2,0.6-0.3,1-0.5,1.4c-0.1,0.3-0.2,0.8-0.3,1.1
			s-0.2,0.7-0.2,0.9s-0.1,0.6-0.2,0.8c0.6-0.5,1.1-0.8,1.7-1.3c0.6-0.5,1.1-0.9,1.6-1.4V40.6z M122.1,50.4c0.1,0,0.3-0.1,0.6-0.3
			s0.5-0.6,0.8-1c0.3-0.5,0.6-0.8,0.8-1.4c0.2-0.6,0.6-1,0.7-1.5c-0.2,0.2-0.6,0.5-0.9,0.8s-0.7,0.6-1,0.9c-0.3,0.3-0.6,0.7-0.8,1
			c-0.2,0.3-0.3,0.8-0.3,1.3C122,50.4,122,50.4,122.1,50.4z"/>
	</g>
</g>
</svg>
